<svg id="Layer_1" viewBox="0 0 512 512" xmlns="http://www.w3.org/2000/svg"><circle cx="255.3" cy="255.9" fill="#38A0CD" r="250"/><path d="M303.2 144.9H314c1.8.3 3.7.6 5.5 1 7.2 1.3 13.8 4.1 19.9 8 3.5 2.3 6.8 4.9 9.7 8 .3.3.8.6 1.2.6 3-.7 6-1.3 8.8-2.2 4-1.3 8-2.6 11.9-4.2 3.5-1.4 6.9-3.3 10.3-4.9 1.3-.6 2.6-1.3 3.9-2-4.1 13.1-12 23.3-23.6 30.7 4.9.1 20.1-4.1 31.2-8.6v.7c-.6.7-1.1 1.5-1.7 2.2-3.4 4.1-6.7 8.4-10.2 12.4-1.9 2.2-4 4.1-6.2 6-2.9 2.5-5.9 5-8.9 7.4-.6.5-.9.9-.8 1.6.1 1.1.2 2.3.2 3.4 0 2.4-.1 4.9-.2 7.3-.2 3.7-.4 7.4-.7 11-.4 4.2-.8 8.5-1.7 12.6-1.4 6.4-2.9 12.7-4.7 19-3 10.1-7 19.8-12.1 29.1-2.1 3.9-4.3 7.7-6.6 11.4-5.2 8.2-11.1 15.8-17.7 23-3 3.2-6.2 6.3-9.4 9.2-3.6 3.2-7.4 6.3-11.2 9.3-6.2 4.9-12.9 9-19.9 12.7-4.2 2.2-8.6 4.3-13 6-5.7 2.2-11.6 4.3-17.5 6-7.3 2.1-14.7 3.7-22.3 4.4-4.5.4-9 .8-13.4 1.2-.3 0-.6.2-.8.2h-16.1c-.3-.1-.6-.2-1-.2-2.6-.2-5.3-.2-7.9-.5-3.7-.4-7.5-.9-11.2-1.7-5.9-1.2-11.8-2.5-17.6-4.1-7.7-2.1-15.1-4.9-22.2-8.4-6.2-3.1-12.3-6.6-18.4-10v-.5c2.6.2 5.3.6 7.9.7 2.5.1 5 .1 7.5 0 3.8-.2 7.5-.3 11.3-.7 4.4-.5 8.8-1.2 13.1-2.2 8.1-1.9 15.8-4.7 23.2-8.3 5.2-2.6 10.2-5.5 15-8.9 1.6-1.1 3.1-2.2 4.8-3.5-12.2-.3-22.9-4.1-32.4-11.2-9.6-7.1-16.1-16.5-19.7-27.7 4.1.2 8.3.5 12.4.6 4.3.1 11-1.1 11.9-1.8-13-3-23.7-9.6-32-20.1-8.2-10.4-12.1-22.4-12.1-35.9 7.8 4.3 15.9 6.7 24.6 7-11.8-8.6-19.6-19.9-22.7-34.2-3.1-14.3-.9-27.8 6.3-40.7 14.4 17.7 31.6 31.6 51.7 41.8 20 10.2 41.2 15.8 63.7 17-.9-5.1-1.7-10.1-1.2-15.1.3-2.8.5-5.6 1-8.4 1.2-7 3.9-13.4 7.7-19.4 2.6-4.1 5.7-8 9.4-11.1 2-1.6 3.9-3.3 6-4.8 3.3-2.4 6.9-4.3 10.6-5.8 3.8-1.6 7.7-2.8 11.8-3.3 1-.6 2.4-.9 3.8-1.1z" fill="#FFF"/></svg>