<svg id="Layer_1" viewBox="0 0 512 512" xmlns="http://www.w3.org/2000/svg"><circle cx="256" cy="256" fill="#2D5FAC" r="250"/><path d="M273.1 339.5c0-21 .1-42.1-.1-63.1 0-3.1.9-4 4-4 14.1.2 28.1 0 42.2.1 3.2 0 4.5-1.1 4.6-4.2.5-13.4.9-26.8 1.6-40.2.2-3.8-1.1-5-4.8-4.9-14.6.2-29.1 0-43.7.1-2.9 0-4-.7-3.9-3.8.2-9 0-17.9.1-26.9 0-4.1.3-8.2.7-12.2.7-6.5 4-10.7 10.5-11.8 6.3-1 12.8-1.1 19.3-1.3 5.7-.2 11.4.2 17.2.1 1.9 0 3.7-.3 3.8-3 .2-13.3.5-26.6.6-39.9 0-1-1.3-2.5-2.4-2.9-1.5-.6-3.4-.7-5.1-.8l-21.6-.9c-11.6-.5-23.1.3-34.2 4-24.6 8.2-39.5 28.6-40.3 53.5-.5 13.7-.4 27.4-.4 41.1 0 3.5-.9 4.8-4.6 4.7-8.8-.3-17.7 0-26.5-.1-3.1 0-4.5.8-4.5 4.3.2 13.7.1 27.4 0 41.1 0 2.9.9 4 3.9 3.9 8.2-.1 16.4-.1 24.6 0 7.1.1 7-1.4 7 7.1v121.7c0 5.6 0 5.6 5.5 5.6 13.9 0 27.9-.1 41.8.1 3.7.1 4.6-1.2 4.6-4.7 0-20.9.1-41.8.1-62.7z"/><path d="M273.1 339.5c0 20.9-.1 41.8.1 62.7 0 3.5-.9 4.8-4.6 4.7-13.9-.2-27.9-.1-41.8-.1-5.5 0-5.5 0-5.5-5.6V279.5c0-8.4.1-7-7-7.1-8.2-.1-16.4-.1-24.6 0-3 .1-3.9-1-3.9-3.9.1-13.7.1-27.4 0-41.1 0-3.4 1.4-4.3 4.5-4.3 8.8.1 17.7-.1 26.5.1 3.7.1 4.6-1.3 4.6-4.7 0-13.7-.1-27.4.4-41.1.8-24.9 15.8-45.3 40.3-53.5 11.1-3.7 22.6-4.5 34.2-4l21.6.9c1.7.1 3.6.1 5.1.8 1 .4 2.4 1.9 2.4 2.9-.1 13.3-.4 26.6-.6 39.9 0 2.7-1.9 3-3.8 3-5.7 0-11.5-.3-17.2-.1-6.4.2-12.9.2-19.3 1.3-6.5 1.1-9.8 5.3-10.5 11.8-.4 4.1-.7 8.2-.7 12.2-.1 9 .1 17.9-.1 26.9-.1 3.1 1 3.8 3.9 3.8 14.6-.1 29.1.1 43.7-.1 3.8 0 5 1.1 4.8 4.9-.7 13.4-1.1 26.8-1.6 40.2-.1 3.1-1.4 4.2-4.6 4.2-14.1-.2-28.1 0-42.2-.1-3.1 0-4 .9-4 4-.1 21-.1 42-.1 63.1z" fill="#FFF"/></svg>