<svg id="Layer_1" viewBox="0 0 512 512" xmlns="http://www.w3.org/2000/svg"><linearGradient gradientUnits="userSpaceOnUse" id="SVGID_1_" x1="95.698" x2="568.781" y1="95.698" y2="568.781"><stop offset="0" stop-color="#dd272d"/><stop offset=".515" stop-color="#ca2429"/><stop offset="1" stop-color="#b22025"/></linearGradient><path d="M256 7.098C118.535 7.098 7.098 118.535 7.098 256c0 137.465 111.437 248.902 248.902 248.902 137.464 0 248.902-111.437 248.902-248.902C504.902 118.535 393.465 7.098 256 7.098zm-56.985 389.307c-49.039 0-90.426-19.978-90.426-51.875 0-32.388 37.751-63.597 86.79-63.611 5.349 0 10.277-.07 15.303-.07-6.697-6.528-11.989-14.404-11.989-24.274 0-5.854 1.825-11.217 4.464-16.201-2.667.197-5.391.828-8.199.828-40.278 0-67.261-27.601-67.261-63.092 0-34.733 37.274-62.516 76.864-62.516h86.537l-14.039 14.039h-31.588c18.574 0 28.12 27.081 28.12 49.277 0 18.672-10.347 32.276-24.933 43.676-14.264 11.147-16.959 15.808-16.959 25.27 0 8.087 15.26 21.831 23.249 27.461 23.319 16.538 30.872 31.869 30.872 57.434-.001 31.898-30.887 63.654-86.805 63.654zm204.396-140.517h-42.117v42.117h-28.078v-42.117h-42.117V227.81h42.117v-42.117h28.078v42.117h42.117v28.078z" fill="url(#SVGID_1_)"/><linearGradient gradientUnits="userSpaceOnUse" id="SVGID_2_" x1="27.991" x2="501.074" y1="163.406" y2="636.489"><stop offset="0" stop-color="#dd272d"/><stop offset=".515" stop-color="#ca2429"/><stop offset="1" stop-color="#b22025"/></linearGradient><path d="M226.7 292.6c-6.683-2.134-14.067-3.411-21.957-3.496-33.918-.379-64.285 20.666-64.285 45.922 0 25.776 24.47 47.228 58.375 47.228 47.663 0 64.299-20.146 64.299-45.922 0-3.089-.407-6.135-1.081-9.111-3.749-14.573-16.945-21.803-35.351-34.621z" fill="url(#SVGID_2_)"/><linearGradient gradientUnits="userSpaceOnUse" id="SVGID_3_" x1="107.413" x2="580.496" y1="83.984" y2="557.066"><stop offset="0" stop-color="#dd272d"/><stop offset=".515" stop-color="#ca2429"/><stop offset="1" stop-color="#b22025"/></linearGradient><path d="M241.835 178.209c-3.917-29.875-25.565-53.854-48.309-54.556-22.743-.674-38.004 22.196-34.087 52.099 3.917 29.861 25.551 54.654 48.309 55.314 22.757.674 38.017-22.981 34.087-52.857z" fill="url(#SVGID_3_)"/></svg>